{"title":"L'Adversaire 2002 DVDrip French Klam","uid":6180527,"size":2016702605,"categoryP":"video","categoryS":"movies","magnet":"?xt=urn:btih:3642b72b6c69d008bbb11f66a6e119f9fa357a93&amp;dn=L%5C%27Adversaire+2002+DVDrip+French+Klam&amp;tr=udp%3A%2F%2Ftracker.openbittorrent.com%3A80&amp;tr=udp%3A%2F%2Fopen.demonii.com%3A1337&amp;tr=udp%3A%2F%2Ftracker.coppersurfer.tk%3A6969&amp;tr=udp%3A%2F%2Fexodus.desync.com%3A6969","seeders":4,"leechers":1,"uploader":"Klambake","files":-1,"time":1297936051,"description":"With: Daniel Auteuil, GÃƒÂ©raldine Pailhas and FranÃƒÂ§ois Cluzet\n\nBased on a true story, that of Jean-Claude Romand, who on January 9, 1993, killed his wife, two children and both his parents.\nWhen a man murders his wife, children and parents, the ensuing investigation reveals that he's been living a lie for almost 20 years. \n\nGeneral:\n\nComplete name                    : L'Adversaire\\Adversaire.avi\nFormat                           : AVI\nFormat/Info                      : Audio Video Interleave\nFile size                        : 1.88 GiB\nDuration                         : 2h 3mn\nOverall bit rate                 : 2 171 Kbps\n\nVideo:\n\nFormat                           : MPEG-4 Visual\nFormat profile                   : Simple@L3\nFormat settings, BVOP            : No\nFormat settings, QPel            : No\nFormat settings, GMC             : No warppoints\nFormat settings, Matrix          : Default (H.263)\nCodec ID                         : XVID\nCodec ID/Hint                    : XviD\nDuration                         : 2h 3mn\nBit rate                         : 1 776 Kbps\nWidth                            : 704 pixels\nHeight                           : 396 pixels\nDisplay aspect ratio             : 16:9\nFrame rate                       : 25.000 fps\nColor space                      : YUV\nChroma subsampling               : 4:2:0\nBit depth                        : 8 bits\nScan type                        : Progressive\nBits/(Pixel*Frame)               : 0.255\nStream size                      : 1.54 GiB (82%)\nWriting library                  : XviD 1.1.2 (UTC 2006-11-01)\n\nAudio:\n\nFormat                           : AC-3\nFormat/Info                      : Audio Coding 3\nMode extension                   : CM (complete main)\nCodec ID                         : 2000\nDuration                         : 2h 3mn\nBit rate mode                    : Constant\nBit rate                         : 384 Kbps\nChannel(s)                       : 6 channels\nChannel positions                : Front: L C R, Side: L R, LFE\nSampling rate                    : 48.0 KHz\nBit depth                        : 16 bits\nStream size                      : 340 MiB (18%)\nAlignment                        : Aligned on interleaves\nInterleave, duration             : 32 ms (0.80 video frame)","torrent":{"xt":"urn:btih:3642b72b6c69d008bbb11f66a6e119f9fa357a93","amp;dn":"L%5C%27Adversaire+2002+DVDrip+French+Klam","amp;tr":["udp%3A%2F%2Ftracker.openbittorrent.com%3A80","udp%3A%2F%2Fopen.demonii.com%3A1337","udp%3A%2F%2Ftracker.coppersurfer.tk%3A6969","udp%3A%2F%2Fexodus.desync.com%3A6969"],"infoHash":"3642b72b6c69d008bbb11f66a6e119f9fa357a93","infoHashBuffer":{"type":"Buffer","data":[54,66,183,43,108,105,208,8,187,177,31,102,166,225,25,249,250,53,122,147]},"announce":[],"urlList":[]}}